<svg width="30" height="30" viewBox="0 0 30 30" fill="none" xmlns="http://www.w3.org/2000/svg">
<g id="mingcute:brightness-line" clip-path="url(#clip0_121_1958)">
<g id="Group">
<path id="Vector" d="M15 23.75C15.3062 23.75 15.6017 23.8624 15.8305 24.0659C16.0593 24.2693 16.2054 24.5497 16.2412 24.8537L16.25 25V26.25C16.2496 26.5686 16.1277 26.875 15.9089 27.1067C15.6902 27.3384 15.3913 27.4778 15.0733 27.4965C14.7552 27.5151 14.442 27.4117 14.1977 27.2072C13.9534 27.0027 13.7964 26.7126 13.7587 26.3962L13.75 26.25V25C13.75 24.6685 13.8817 24.3505 14.1161 24.1161C14.3505 23.8817 14.6685 23.75 15 23.75ZM21.1875 21.1875C21.4027 20.9723 21.6891 20.843 21.9929 20.8239C22.2967 20.8048 22.597 20.8972 22.8375 21.0837L22.955 21.1875L23.8387 22.0712C24.0629 22.2962 24.1931 22.598 24.2028 22.9155C24.2125 23.2329 24.101 23.5421 23.8909 23.7803C23.6809 24.0186 23.3881 24.1679 23.0719 24.198C22.7558 24.2281 22.44 24.1368 22.1887 23.9425L22.0712 23.8387L21.1875 22.955C20.9532 22.7206 20.8215 22.4027 20.8215 22.0712C20.8215 21.7398 20.9532 21.4219 21.1875 21.1875ZM8.8125 21.1875C9.04684 21.4219 9.17848 21.7398 9.17848 22.0712C9.17848 22.4027 9.04684 22.7206 8.8125 22.955L7.92875 23.8387C7.693 24.0664 7.37724 24.1924 7.0495 24.1896C6.72175 24.1867 6.40824 24.0553 6.17648 23.8235C5.94472 23.5918 5.81326 23.2782 5.81041 22.9505C5.80756 22.6228 5.93355 22.307 6.16125 22.0712L7.045 21.1875C7.27941 20.9532 7.59729 20.8215 7.92875 20.8215C8.2602 20.8215 8.57809 20.9532 8.8125 21.1875ZM15 7.5C16.9891 7.5 18.8968 8.29018 20.3033 9.6967C21.7098 11.1032 22.5 13.0109 22.5 15C22.5 16.9891 21.7098 18.8968 20.3033 20.3033C18.8968 21.7098 16.9891 22.5 15 22.5C13.0109 22.5 11.1032 21.7098 9.6967 20.3033C8.29018 18.8968 7.5 16.9891 7.5 15C7.5 13.0109 8.29018 11.1032 9.6967 9.6967C11.1032 8.29018 13.0109 7.5 15 7.5ZM15 10C13.6739 10 12.4021 10.5268 11.4645 11.4645C10.5268 12.4021 10 13.6739 10 15C10 16.3261 10.5268 17.5979 11.4645 18.5355C12.4021 19.4732 13.6739 20 15 20V10ZM5 13.75C5.33152 13.75 5.64946 13.8817 5.88388 14.1161C6.1183 14.3505 6.25 14.6685 6.25 15C6.25 15.3315 6.1183 15.6495 5.88388 15.8839C5.64946 16.1183 5.33152 16.25 5 16.25H3.75C3.41848 16.25 3.10054 16.1183 2.86612 15.8839C2.6317 15.6495 2.5 15.3315 2.5 15C2.5 14.6685 2.6317 14.3505 2.86612 14.1161C3.10054 13.8817 3.41848 13.75 3.75 13.75H5ZM26.25 13.75C26.5686 13.7504 26.875 13.8723 27.1067 14.0911C27.3384 14.3098 27.4778 14.6087 27.4965 14.9267C27.5151 15.2448 27.4117 15.558 27.2072 15.8023C27.0027 16.0466 26.7126 16.2036 26.3962 16.2412L26.25 16.25H25C24.6814 16.2496 24.375 16.1277 24.1433 15.9089C23.9116 15.6902 23.7722 15.3913 23.7535 15.0733C23.7349 14.7552 23.8383 14.442 24.0428 14.1977C24.2473 13.9534 24.5374 13.7964 24.8537 13.7587L25 13.75H26.25ZM7.92875 6.16125L8.8125 7.045C9.0402 7.28075 9.16619 7.59651 9.16334 7.92425C9.16049 8.252 9.02903 8.56551 8.79727 8.79727C8.56551 9.02903 8.252 9.16049 7.92425 9.16334C7.59651 9.16619 7.28075 9.0402 7.045 8.8125L6.16125 7.92875C6.03915 7.81409 5.94134 7.67606 5.87363 7.52287C5.80592 7.36967 5.76969 7.20443 5.76709 7.03695C5.76449 6.86948 5.79557 6.70319 5.85849 6.54796C5.92141 6.39274 6.01489 6.25174 6.13337 6.13335C6.25184 6.01495 6.39291 5.92158 6.54818 5.85876C6.70345 5.79595 6.86976 5.76499 7.03723 5.76771C7.2047 5.77043 7.36992 5.80678 7.52307 5.87459C7.67622 5.94241 7.81418 6.03907 7.92875 6.16125ZM22.0712 6.16125C22.2962 5.93706 22.598 5.80691 22.9155 5.79721C23.2329 5.78752 23.5421 5.89902 23.7803 6.10906C24.0186 6.3191 24.1679 6.61194 24.198 6.92809C24.2281 7.24425 24.1368 7.56001 23.9425 7.81125L23.8387 7.92875L22.955 8.8125C22.7301 9.03668 22.4282 9.16684 22.1108 9.17653C21.7933 9.18623 21.4841 9.07473 21.2459 8.86469C21.0077 8.65465 20.8584 8.36181 20.8283 8.04566C20.7981 7.7295 20.8895 7.41374 21.0837 7.1625L21.1875 7.045L22.0712 6.16125ZM15 2.5C15.3062 2.50004 15.6017 2.61245 15.8305 2.81589C16.0593 3.01934 16.2054 3.29969 16.2412 3.60375L16.25 3.75V5C16.2496 5.3186 16.1277 5.62504 15.9089 5.85671C15.6902 6.08838 15.3913 6.22779 15.0733 6.24646C14.7552 6.26514 14.442 6.16166 14.1977 5.95717C13.9534 5.75268 13.7964 5.46262 13.7587 5.14625L13.75 5V3.75C13.75 3.41848 13.8817 3.10054 14.1161 2.86612C14.3505 2.6317 14.6685 2.5 15 2.5Z" fill="#3D3C3C"/>
</g>
</g>
<defs>
<clipPath id="clip0_121_1958">
<rect width="30" height="30" fill="white"/>
</clipPath>
</defs>
</svg>
